<?xml version="1.0" encoding="UTF-8"?>
<svg id="Capa_1" data-name="Capa 1" xmlns="http://www.w3.org/2000/svg" viewBox="0 0 98.32 98.13">
  <defs>
    <style>
      .cls-1 {
        fill: #fff;
        stroke: #000;
        stroke-miterlimit: 10;
      }

      .cls-2 {
        fill: #e52421;
      }
    </style>
  </defs>
  <polygon class="cls-1" points="49.15 3.7 3.93 48.74 49.26 94.21 94.43 48.95 49.15 3.7"/>
  <path class="cls-2" d="M0,49.07L49.32,0l49,49.13-49,49L0,49.07ZM49.25,7.56L7.75,49.07l41.51,41.51,41.51-41.51L49.25,7.56Z"/>
  <path d="M48.54,41.57l4.91-9.28.62.44-6.05,10.35,1.14.97,13.92-15.11c.5.15.87.47.46.94l-11.61,11.86c1.41.32,1.8-.7,2.85-1.25-.36,1.14-1.04,2.04-1.96,2.77l.26.09,10.53-7.49c.44-.15.3.94.23,1.13-.24.72-11.54,6.95-12.91,8.15-.72-.04.85-.97.99-.89-.29-.24-.2-1.11-.62-1.07-.6.06-2.35.76-1.7,1.6l-2.03.02-.58,1.03-1.67-.16c.78,1.48.42,2.03-.84,3.01-.61.16-2.13-1.41-3.68-1.04-.14.03-.11.34-.19.33-1.27-.03-1.17-.69-1.8-1.23s-2.04-1-1.96-1.78c.4.24,1.88,1.67,2.23,1.43.84-3.19,4.55-5.16,7.67-3.93-.06-.34-.15-.53-.11-.89.37-2.95,1.93-6.37,2.43-9.37-.26-.05-.65.44-.81.62-.2.24-.72,1.32-.98,1.07.29-.76-.88-1.46-.9-1.55-.1-.41.24-1.02.2-1.47h.78l.27-.64.89-.06c.1.41.19.97.36,1.34.1.21-.09.32.37.25l.54-2.5c.37-.06.69.09.83.44-.81,3.35-2.46,6.77-3.25,10.08-.04.18-.23.58.1.54l6.08-17.66c.19-.13,1.44.36,1.39.76l-6.39,18.15h0Z"/>
  <path d="M50.32,52.28c-.3-.11-.61-.16-.89-.36l.17.45,7.77,5.61-.19.54-7.85-6.07-.44.27,5.62,4.19.26.72-6.01-4.62c-1.24,1.02-2.2,1.7-3.88,1.77-2.05.08-2.85-.64-4.4-1.69-.16-.11-.47-.08-.51-.11-.05-.05.25-.91-.44-1.18l-5.1,1.37.43-.55,3.67-1.06-13.92,3.21.45-.53,14.18-3.04-.53-1.6,2.76.54,1.89-1.36,2.4,2.02c1.1-.68,2.09-.93,1.96-2.46.72.33,1.1,1.11,1.57,1.55.32.3.81.18.97.95l10.92,1.62-.17,1.41-4.19-1.07.44,1.61-3.57-.53c.18.5,3.64,1.68,3.03,2.32-.56-.11-1.1-.52-1.59-.82-1.47-.88-3.62-2.04-4.83-3.11,1.12.41,1.95,1.03,3.03,1.43l-.81-.71c-.17-1.46,1.25-.1,1.71-.89l-4.2-1.02-.43.58c.28.17.48.43.7.62h.02Z"/>
  <path d="M79.23,43.36c-.02.36.16,1.08-.29,1.22l-27.55,3.59,27.84-4.82h0Z"/>
  <path d="M63.17,48.89l-.89,1.25c3.29.1,6.62.03,9.91.17.78.03,1.92.1,2.68.18.27.03.55.04.62.36l-18.74-.71,1.07-.18-.36-1.24c.96-.17,1.6-.53,2.27-1.23l3.44,1.41h0Z"/>
  <polygon points="75.47 40.52 75.66 41.39 51.58 46.84 50.68 46.92 68.09 42.3 75.47 40.52"/>
  <path d="M71.38,38.71l-1.87-1.22-1.07,1-1.14-.79.41-1.5,1.88-.17.37-1.78c1.32,1.27,1.62,2.68,1.42,4.46Z"/>
  <path d="M39.8,53.17l-1.61,1.69,1.23.29-.2,1.18c-.72.22-1.9.46-2.19-.49l-5.36,4.77-.62-.58,8.74-6.87h.01Z"/>
  <path d="M35.16,49.6c.33.67-.97,1.26-1.51,1.27-.68,0-1.08-.37-1.62-.73l.27-.72c-2.27-.31-4.63,0-6.87-.36-.27-.04-.55,0-.62-.36,2.44-.14,5.19.57,7.59.44.14,0,.33-.22.54-.25,1.09-.17.93.3,1.1.34.84.2,2.12.15,3,.18.22,0,.66-.13.62.18h-2.5Z"/>
  <path d="M34.08,51.21l-14.45,1.96.22-.4,9.59-1.03-2.5-.36c.64-2.43,2.02.02,2.96.18,1.09.18,2.98-.58,4.18-.35Z"/>
  <polygon points="58.71 42.46 58.69 43.33 50.86 46.21 53.12 44.99 58.71 42.46"/>
  <path d="M28.59,57.67c-.21.14-.09.7-.3.86-.85-.75-1.19-1.37-.8-2.5.38-.12.77.48.98.47s.71-.54,1.26.05c.21,1.04-.85.92-1.14,1.11h0Z"/>
  <path d="M54.41,34.99c.51.78.35,2.09-.58,2.46-1.15-.66-.67-1.46-.27-2.47h.85Z"/>
  <path d="M64.07,42.1l-2.85-.44c.16-.26.61-1.41.97-1.35,0,0,1.88,1.79,1.88,1.79Z"/>
  <path d="M36.94,53.17l-4.45,2.77-.9.26c-.11-.49.15-.3.35-.44,1.48-.98,3.37-1.85,5-2.59Z"/>
  <path d="M38.55,48.53c.03.33-.58.17-.78.15-1.31-.12-2.82-.46-4.13-.69-.29-.05-.7.18-.62-.27.23-.36.4-.23.71-.2,1.53.15,3.22.99,4.82,1h0Z"/>
  <path d="M33.02,53.53c.11.54-.29.81-.78.86-.2-.1-1.02-.86-.83-1.04l1.61.18Z"/>
</svg>