<?xml version="1.0" encoding="UTF-8"?>
<svg id="Capa_1" data-name="Capa 1" xmlns="http://www.w3.org/2000/svg" viewBox="0 0 97.15 97.27">
  <defs>
    <style>
      .cls-1, .cls-2 {
        fill: #fff;
      }

      .cls-2 {
        stroke: #000;
        stroke-miterlimit: 10;
      }

      .cls-3 {
        fill: #e52421;
      }
    </style>
  </defs>
  <polygon class="cls-2" points="48.58 3.77 3 48.64 48.58 93.58 93.48 48.68 48.58 3.77"/>
  <path class="cls-3" d="M48.53,0L0,48.59l48.62,48.68,48.53-48.59L48.53,0ZM48.62,89.64L7.62,48.59,48.53,7.63l41,41.05-40.91,40.96Z"/>
  <path d="M68.26,59.18c.69-.64,1.79-1.3.83-2.26l-5.6.07c1.42-.8,6.13-1,3.73-3.54-.59-.63-1.67-.96-2.19-1.43-.17-.16-.26-.19-.2-.47.89-.39,1.73-1.02,2.54-1.56.34-.23.73-.79,1.02-.88.46-.14,2.44.05,2.54-.04v-3.33l-.58-.2.39-3.34-4,.57.57-2.1c-4.24-.2-8,1.67-10.58,4.96h-10.96v-4.29c0-.26,3.23-3.56,3.52-3.73.69-.4,2.02-.36,2.78-.66,1.26-.48,3.22-4.24,4.15-5.39-.03-2.01-1.41.5-1.96,1.1-.35.37-2.36,2.48-2.58,2.57-.92.39-2.58.09-3.54.47-.33.13-1.91,1.64-1.99,1.54.25-1.23,1.15-2.49,1.32-3.74.13-.98-.34-2.32-.14-3,.12-.38,1.41-1.42,1.78-1.85.94-1.12,2.58-3.21,2.81-4.63.03-.19.24-.39-.16-.51-.92-.28-.89.94-1.26,1.58-.9,1.54-2.09,2.96-3.59,3.95l-.77-6.11-1.06.19.66,9.44c-.03.78-2.14,4.64-2.74,4.5-.46-.45-.57-1.13-.76-1.72-.78-2.32-2.03-6.71-1.81-9.06.05-.52.71-3.6.57-3.72l-.78.11c-.34.99.03,2.43-.93,3.13-.58-1.84-1.69-3.35-3.17-4.56-1.37.38.48,1.7.96,2.48,1.29,2.07,1.44,4.48,1.64,6.85-.74.75-4.97-4-5.89-3.41l-.21.73c1.91.96,4.13,2.84,5.52,4.5,1.06,1.27,1.73,2.34,1.53,4.1-1.07-.13-1.81-1.02-2.86-1.43-1.53-.59-3.85-.89-4.93.54.38,1.18.85.41,1.61.34,2.5-.25,6.32,1.85,6.75,4.47.24,1.44-.18,3.45,0,4.96l-.29.29h-9.63v3.44h9.72v2.77c0,.18-1.14.95-1.4,1.08l-3.75,1.87c2.68.43,6.63-2.24,7.99,1.22l.39.12c.31-.86,1.31-3.26,2.2-3.43,1.52-.29,3.51.43,5.05.57l-4.19,1.62c0,.44,1.83.48,1.81,1.05-.48.68-6.29,3.15-7.38,3.49-.43.13-1.61.53-1.95.51-.52-.03-.85-.57-1.49-.53-1.41.1-4.83,1.36-6.35,1.87-.51.17-1.34.29-1.62.77h41.75v-2.67l-2.86-.19.02-.04ZM48.81,52.02c-.57-.31-2.31-1.41-2.72-1.81-.34-.33-.46-1.15-.04-1.15h8.58l.2.39c-.66,1.1-.9,2.39-2.07,3.09-1.45.87-2.57.23-3.95-.51h0ZM53.29,57.84c-1.1-1.35-2.64-2.08-4.1-2.96,1.45-.46,3.11-.82,4.37-1.73,1.68-1.21,2.63-4.85,3.94-6.75,1.99-2.89,5.03-4.38,8.47-4.79l-.76,2.67,4.38-.95-.38,2.48c-.06-.04-.16-.02-.16-.02v-.11s-.01,0-.02-.02c-.07.28-.11.54-.18.76.1.44-2.18,2.68-2.59,3.01-3.21,2.62-5.65,2.52-9.2,3.77-2.58.9-2.77,2.33-3.76,4.63h-.01Z"/>
  <path class="cls-1" d="M69.03,45.66l.02-.08s-.01.05-.02.08Z"/>
  <path class="cls-1" d="M65.21,44.29l.76-2.67c-3.43.4-6.48,1.9-8.47,4.79-1.31,1.9-2.25,5.54-3.94,6.75-1.27.91-2.92,1.26-4.37,1.73,1.46.88,3,1.61,4.1,2.96.99-2.3,1.18-3.73,3.76-4.63,3.55-1.25,5.99-1.15,9.2-3.77.41-.33,2.69-2.57,2.59-3.01-.12.39-.32.68-.82.8.51-.13.7-.41.82-.8,0,0,0-.03-.02-.04-1.87,1.35-2.59-1.68-.69-1.48.53.06.9.7.91.67v-.41.41s.1.19.16.23l.38-2.48-4.38.95h0Z"/>
  <path class="cls-1" d="M69.21,45.82s-.17.68-.63,1.11-5.26.28-5.26.28l5.73-2.03s.16.64.16.64Z"/>
  <ellipse cx="68.13" cy="45.84" rx=".91" ry=".85"/>
</svg>