<?xml version="1.0" encoding="UTF-8"?>
<svg id="Capa_1" data-name="Capa 1" xmlns="http://www.w3.org/2000/svg" viewBox="0 0 258.51 172.96">
  <defs>
    <style>
      .cls-1 {
        fill: #ec1a3b;
      }
    </style>
  </defs>
  <g id="Capa_11" data-name="Capa 11">
    <path class="cls-1" d="M60.41,106.98h-21.96l9.21-16.47h9.84c-3.1-58.24,60.54-96.84,110.79-65.18,40.4,25.39,45.18,83.42,9.23,115-39.51,34.72-102.49,16.66-117.11-33.34h0ZM73.75,90.49c11.12.03,22.28-.01,33.4.02l25.17-44.77,19.69-.03c-15.22,26.67-30.62,53.79-45.84,80.46,0,0-14.05.02-16.27.02.74.77,3.69,2.57,4.53,3.23,1.25,1,2.75,1.84,4.08,2.72,2.67,1.77,5.5,3.3,8.43,4.59,5.87,2.58,12.17,4.18,18.56,4.68,4.16.33,8.53.3,12.65-.47,16.95-2.66,32.39-13.64,40.48-28.77s8.63-34.07,1.43-49.64c-12.23,21.2-24.47,42.41-36.7,63.61-6.28,0-12.56.01-18.83.02l7.24-14.03c.78-1.41,1.64-4.02-2.05-4.81-2.67-.53-5.42-.64-8.12-.34,2.05-4.27,4.26-8.46,6.64-12.56.77-1.1,1.8-3.13,2.2-3.65,3.58-.81,11.71-.1,12.81,2.4,8.27-14.09,16.55-28.18,24.82-42.27.41-.7.83-1.42.9-2.22.15-1.65-1.14-3.04-2.38-4.13-16.56-14.52-42.04-17.86-61.79-8.09-19.74,9.77-32.54,32.05-31.04,54.03h0ZM97,106.98h-19.22c.99,3.04,8.61,15.05,9.61,16.42l9.61-16.42Z"/>
  </g>
</svg>